# xmcd
#
# Track frame offsets: 
#        150
#        18553
#        36046
#        50969
#        72490
#        90538
#        110663
#        129238
#        150874
#        165005
#        179685
#        191073
#
# Disc length: 2987 seconds
#
# Revision: 1
# Processed by: cddbd v1.5.2PL0 Copyright (c) Steve Scherf et al.
# Submitted via: ExactAudioCopyFreeDBPlugin 1.0
#
DISCID=9b0ba90c
DTITLE=The Infamous Stringdusters - Fork In The Road
DYEAR=2007
DGENRE=Bluegrass
TTITLE0=No More To Leave You Behind
TTITLE1=Fork In The Road
TTITLE2=Starry Night
TTITLE3=3x5
TTITLE4=40 West
TTITLE5=Tragic Life
TTITLE6=Poor Boy's Delight
TTITLE7=No Resolution
TTITLE8=My Destination
TTITLE9=Letter From Prison
TTITLE10=Dream You Back
TTITLE11=Moon Man
EXTD=
EXTT0=
EXTT1=
EXTT2=
EXTT3=
EXTT4=
EXTT5=
EXTT6=
EXTT7=
EXTT8=
EXTT9=
EXTT10=
EXTT11=
PLAYORDER=
